<svg xmlns="http://www.w3.org/2000/svg" viewBox="0 0 512 512">
<rect width="512" height="512" rx="110" fill="#111827"/>
<path d="M150 90h212c44 0 80 36 80 80v142c0 44-36 80-80 80H150c-44 0-80-36-80-80V170c0-44 36-80 80-80z" fill="white"/>
<rect x="120" y="135" width="272" height="120" rx="24" fill="#dbeafe"/>
<circle cx="160" cy="328" r="30" fill="#111827"/>
<circle cx="352" cy="328" r="30" fill="#111827"/>
<path d="M150 392l-40 55h55l35-55m162 0 40 55h-55l-35-55" stroke="white" stroke-width="18" stroke-linecap="round"/>
<path d="M150 290h212" stroke="#111827" stroke-width="18" stroke-linecap="round"/>
</svg>